<svg width="47" height="47" viewBox="0 0 47 47" fill="none" xmlns="http://www.w3.org/2000/svg">
<path d="M38.2788 35.1581C38.4842 35.3628 38.6472 35.606 38.7584 35.8738C38.8696 36.1416 38.9268 36.4287 38.9268 36.7187C38.9268 37.0086 38.8696 37.2957 38.7584 37.5635C38.6472 37.8313 38.4842 38.0745 38.2788 38.2792C37.8631 38.6896 37.3025 38.9197 36.7183 38.9197C36.1341 38.9197 35.5735 38.6896 35.1578 38.2792L23.4996 26.621L11.8413 38.2792C11.4256 38.6896 10.865 38.9197 10.2808 38.9197C9.69665 38.9197 9.136 38.6896 8.72025 38.2792C8.51486 38.0745 8.3519 37.8313 8.2407 37.5635C8.12951 37.2957 8.07227 37.0086 8.07227 36.7187C8.07227 36.4287 8.12951 36.1416 8.2407 35.8738C8.3519 35.606 8.51486 35.3628 8.72025 35.1581L20.3785 23.4999L8.72025 11.8417C8.30637 11.4278 8.07385 10.8665 8.07385 10.2812C8.07385 9.99135 8.13094 9.70436 8.24185 9.4366C8.35276 9.16884 8.51532 8.92555 8.72025 8.72062C8.92519 8.51568 9.16848 8.35312 9.43624 8.24221C9.704 8.1313 9.99098 8.07422 10.2808 8.07422C10.8661 8.07422 11.4275 8.30674 11.8413 8.72062L23.4996 20.3788L35.1578 8.72062C35.5716 8.30674 36.133 8.07422 36.7183 8.07422C37.3036 8.07422 37.865 8.30674 38.2788 8.72062C38.6927 9.1345 38.9252 9.69585 38.9252 10.2812C38.9252 10.8665 38.6927 11.4278 38.2788 11.8417L26.6206 23.4999L38.2788 35.1581Z" fill="url(#paint0_linear_1163_10618)"/>
<defs>
<linearGradient id="paint0_linear_1163_10618" x1="14.4974" y1="23.6828" x2="32.3605" y2="23.6828" gradientUnits="userSpaceOnUse">
<stop stop-color="#DFCE98"/>
<stop offset="1" stop-color="#99783F"/>
</linearGradient>
</defs>
</svg>
